<?xml version="1.0" encoding="UTF-8"?>
<svg id="Capa_2" data-name="Capa 2" xmlns="http://www.w3.org/2000/svg" viewBox="0 0 519.48 39.11">
  <defs>
    <style>
      .cls-1 {
        fill-rule: evenodd;
      }

      .cls-1, .cls-2 {
        fill: #fff;
      }
    </style>
  </defs>
  <g id="Capa_1-2" data-name="Capa 1">
    <g>
      <rect class="cls-2" x="64.7" y="20.7" width=".77" height="10.25"/>
      <path class="cls-2" d="M72.83,32.73h-1.76v1.1h1.63v1.11h-1.63v2.38h-1.25v-5.7h3.01v1.11Z"/>
      <path class="cls-2" d="M74.7,33.51v2.1c0,.17.02.44.2.62.08.08.23.18.49.18.22,0,.39-.08.5-.18.17-.17.2-.43.2-.62v-2.1h1.17v2.22c0,.44-.04.85-.41,1.22-.41.43-1.02.5-1.45.5s-1.05-.07-1.46-.5c-.33-.34-.4-.73-.4-1.15v-2.3h1.17Z"/>
      <path class="cls-2" d="M78.16,33.51h1.17v.45c.36-.48.78-.56,1.12-.56.32,0,.73.06,1.04.38.34.36.37.81.37,1.12v2.41h-1.17v-1.96c0-.25,0-.56-.2-.76-.09-.09-.24-.17-.45-.17-.24,0-.4.1-.49.21-.2.21-.23.48-.23.73v1.96h-1.17v-3.81Z"/>
      <path class="cls-2" d="M86.72,37.32h-1.17v-.46c-.18.27-.5.59-1.15.59-.54,0-.93-.18-1.24-.52-.37-.39-.57-.94-.57-1.53,0-.63.22-1.15.57-1.5.32-.32.76-.51,1.26-.51.4,0,.84.14,1.13.56v-2.85h1.17v6.23ZM84.08,34.7c-.17.17-.28.42-.28.73,0,.28.11.53.28.7.18.18.41.26.61.26.22,0,.48-.09.67-.28.14-.14.27-.37.27-.68s-.12-.55-.26-.7c-.19-.21-.41-.28-.66-.28-.24,0-.44.07-.63.26Z"/>
      <path class="cls-2" d="M90.44,33.51h1.17v3.81h-1.17v-.46c-.32.51-.77.59-1.07.59-.52,0-.96-.14-1.36-.58-.38-.43-.53-.92-.53-1.43,0-.64.23-1.19.56-1.54s.76-.52,1.26-.52c.31,0,.8.08,1.14.56v-.43ZM88.96,34.72c-.12.13-.27.35-.27.69s.14.56.24.68c.16.18.41.3.69.3.24,0,.46-.1.61-.26.15-.15.28-.39.28-.72,0-.27-.1-.53-.27-.7-.18-.18-.44-.27-.65-.27-.25,0-.49.11-.64.27Z"/>
      <path class="cls-2" d="M95.25,34.72c-.28-.25-.58-.29-.76-.29-.37,0-.59.19-.67.27-.15.16-.27.41-.27.72,0,.28.1.52.24.68.18.21.45.31.71.31.2,0,.48-.06.75-.3v1.11c-.31.18-.6.23-.93.23-.61,0-1.07-.23-1.41-.57-.28-.28-.57-.76-.57-1.45,0-.65.26-1.16.6-1.5.41-.4.89-.54,1.38-.54.32,0,.61.06.92.21v1.12Z"/>
      <path class="cls-2" d="M96.69,31.17c.38,0,.68.32.68.72s-.3.72-.68.72-.68-.32-.68-.72.3-.72.68-.72ZM97.28,33.51v3.81h-1.17v-3.81h1.17Z"/>
      <path class="cls-2" d="M101.81,36.84c-.33.34-.88.62-1.58.62s-1.26-.27-1.58-.62c-.37-.38-.54-.93-.54-1.42s.18-1.03.54-1.42c.33-.34.88-.62,1.58-.62s1.26.27,1.58.62c.37.38.54.93.54,1.42s-.18,1.03-.54,1.42ZM99.56,34.7c-.17.18-.27.41-.27.72,0,.35.13.57.27.72.15.15.36.27.67.27.26,0,.48-.09.65-.27s.27-.41.27-.72-.1-.54-.27-.72c-.17-.18-.39-.27-.66-.27s-.49.09-.66.27ZM101.4,31.77l-1.24,1.15-.53-.41,1-1.3.76.56Z"/>
      <path class="cls-2" d="M103.08,33.51h1.17v.45c.36-.48.78-.56,1.12-.56.32,0,.73.06,1.04.38.34.36.37.81.37,1.12v2.41h-1.17v-1.96c0-.25,0-.56-.2-.76-.09-.09-.24-.17-.45-.17-.24,0-.4.1-.49.21-.2.21-.23.48-.23.73v1.96h-1.17v-3.81Z"/>
      <path class="cls-2" d="M111.63,32.73v4.59h-1.25v-4.59h-1.18v-1.11h3.61v1.11h-1.18Z"/>
      <path class="cls-2" d="M116.56,35.63h-2.71c0,.21.07.48.22.65.18.21.42.24.6.24s.35-.03.47-.11c.02,0,.15-.1.25-.32l1.11.12c-.16.54-.49.82-.7.96-.35.22-.74.28-1.15.28-.54,0-1.02-.1-1.45-.55-.32-.33-.54-.84-.54-1.47,0-.55.19-1.11.55-1.5.44-.46.98-.55,1.39-.55s.99.08,1.44.57c.43.48.51,1.08.51,1.55v.13ZM115.48,34.9s-.07-.27-.24-.44c-.13-.13-.32-.21-.55-.21-.3,0-.48.13-.59.25-.09.1-.17.24-.2.41h1.58Z"/>
      <path class="cls-2" d="M118.5,31.09v6.23h-1.17v-6.23h1.17Z"/>
      <path class="cls-2" d="M123.15,35.63h-2.71c0,.21.07.48.22.65.18.21.42.24.6.24s.35-.03.47-.11c.02,0,.15-.1.25-.32l1.11.12c-.16.54-.49.82-.7.96-.35.22-.74.28-1.15.28-.54,0-1.02-.1-1.45-.55-.32-.33-.54-.84-.54-1.47,0-.55.19-1.11.55-1.5.44-.46.98-.55,1.39-.55s.99.08,1.44.57c.43.48.51,1.08.51,1.55v.13ZM122.07,34.9s-.07-.27-.24-.44c-.13-.13-.32-.21-.55-.21-.3,0-.48.13-.59.25-.09.1-.17.24-.2.41h1.58Z"/>
      <path class="cls-2" d="M125.15,34.5v2.82h-1.17v-2.82h-.42v-.99h.42v-.75c0-.43.04-.91.41-1.32.24-.26.57-.44,1.02-.44.26,0,.47.05.67.13v1.08c-.13-.09-.3-.15-.45-.15-.18,0-.29.09-.34.15-.13.18-.13.48-.13.66v.64h.93v.99h-.93Z"/>
      <path class="cls-2" d="M130.07,36.84c-.33.34-.88.62-1.58.62s-1.26-.27-1.58-.62c-.37-.38-.54-.93-.54-1.42s.18-1.03.54-1.42c.33-.34.88-.62,1.58-.62s1.26.27,1.58.62c.37.38.54.93.54,1.42s-.18,1.03-.54,1.42ZM127.83,34.7c-.17.18-.27.41-.27.72,0,.35.13.57.27.72.15.15.36.27.67.27.26,0,.48-.09.65-.27.17-.18.27-.41.27-.72s-.1-.54-.27-.72-.39-.27-.66-.27-.49.09-.66.27ZM129.66,31.77l-1.24,1.15-.53-.41,1-1.3.76.56Z"/>
      <path class="cls-2" d="M131.35,33.51h1.17v.45c.36-.48.78-.56,1.12-.56.32,0,.73.06,1.04.38.34.36.37.81.37,1.12v2.41h-1.17v-1.96c0-.25,0-.56-.2-.76-.09-.09-.24-.17-.45-.17-.24,0-.4.1-.49.21-.2.21-.23.48-.23.73v1.96h-1.17v-3.81Z"/>
      <path class="cls-2" d="M136.62,31.17c.38,0,.68.32.68.72s-.3.72-.68.72-.68-.32-.68-.72.3-.72.68-.72ZM137.21,33.51v3.81h-1.17v-3.81h1.17Z"/>
      <path class="cls-2" d="M140.92,34.72c-.28-.25-.58-.29-.76-.29-.37,0-.59.19-.67.27-.15.16-.27.41-.27.72,0,.28.1.52.24.68.18.21.45.31.71.31.2,0,.48-.06.75-.3v1.11c-.31.18-.6.23-.93.23-.61,0-1.07-.23-1.41-.57-.28-.28-.57-.76-.57-1.45,0-.65.26-1.16.6-1.5.41-.4.89-.54,1.38-.54.32,0,.61.06.92.21v1.12Z"/>
      <path class="cls-2" d="M144.48,33.51h1.17v3.81h-1.17v-.46c-.32.51-.77.59-1.07.59-.52,0-.96-.14-1.36-.58-.38-.43-.53-.92-.53-1.43,0-.64.23-1.19.56-1.54s.76-.52,1.26-.52c.31,0,.8.08,1.14.56v-.43ZM143,34.72c-.12.13-.27.35-.27.69s.14.56.24.68c.16.18.41.3.69.3.24,0,.46-.1.61-.26.15-.15.28-.39.28-.72,0-.27-.1-.53-.27-.7-.18-.18-.44-.27-.65-.27-.25,0-.49.11-.64.27Z"/>
      <polygon id="polygon5" class="cls-2" points="0 28.82 20.52 28.82 20.52 39.11 30.76 39.11 30.76 20.53 10.28 20.53 30.76 0 20.52 0 0 20.53 0 28.82"/>
      <polygon id="polygon7" class="cls-2" points="35.18 10.28 45.42 0 35.18 0 35.18 10.28"/>
      <polygon id="polygon9" class="cls-2" points="45.42 10.28 35.18 20.53 35.18 30.77 45.42 30.77 45.42 20.53 55.7 10.28 55.7 0 45.42 0 45.42 10.28"/>
      <polygon id="polygon11" class="cls-2" points="55.7 20.53 45.42 30.77 55.7 30.77 55.7 20.53"/>
      <path class="cls-2" d="M68.95,28.17l1.47-5.42h.98l.88,3.24,1.67-3.24h1.01l.19,5.42h-1.19l-.03-3.23-1.65,3.23h-.45l-.9-3.23-.79,3.23h-1.19Z"/>
      <path class="cls-2" d="M79.2,27.15h-1.95l-.49,1.02h-1.28l2.72-5.42h1.1l1.38,5.42h-1.22l-.26-1.02ZM78.99,26.19l-.42-1.91-.87,1.91h1.28ZM80.06,21.24l-1.39,1.05-.46-.43,1.18-1.2.66.59Z"/>
      <path class="cls-2" d="M83.07,22.75l-.51,4.36h1.61l-.12,1.06h-2.8l.63-5.42h1.19Z"/>
      <path class="cls-2" d="M88.05,27.15h-1.95l-.49,1.02h-1.28l2.72-5.42h1.1l1.38,5.42h-1.22l-.26-1.02ZM87.83,26.19l-.42-1.91-.87,1.91h1.28Z"/>
      <path class="cls-2" d="M92.77,25.21h2.41c-.04,1.37-.54,2.04-.8,2.32-.59.64-1.26.76-1.9.76s-1.34-.16-1.89-.76c-.53-.59-.66-1.3-.66-1.88,0-1.02.36-1.72.77-2.19.65-.72,1.38-.84,2.11-.84.46,0,.99.08,1.45.4.34.24.64.62.83.98l-1.1.61c-.09-.22-.26-.46-.48-.62-.27-.2-.56-.23-.79-.23-.42,0-.77.11-1.08.46-.34.37-.5.91-.5,1.38,0,.41.15.88.43,1.16.32.34.74.39,1.06.39.24,0,.56-.05.82-.24.19-.14.36-.39.44-.7h-1.24l.12-1Z"/>
      <path class="cls-2" d="M98.73,27.15h-1.95l-.49,1.02h-1.28l2.72-5.42h1.1l1.38,5.42h-1.22l-.26-1.02ZM98.51,26.19l-.42-1.91-.87,1.91h1.28Z"/>
      <polygon class="cls-1" points="365.27 17.59 361.6 17.59 352.96 35.96 356.63 35.96 365.27 17.59"/>
      <path class="cls-1" d="M368.9,35.96h3.69c-1.99-2.99-5.39-4.96-9.25-4.96-.59,0-1.18.05-1.74.14v2.87c.57-.12,1.15-.19,1.76-.19,2.13,0,4.08.81,5.54,2.14"/>
      <path class="cls-1" d="M372.56,35.91h0l-7.3-18.33-1.99,4.23,3.91,9.87c2.2.81,4.08,2.31,5.37,4.23"/>
      <path class="cls-2" d="M375.2,23.97l.77-.57c.22.41.52.59.84.59.5,0,.75-.27.75-1.04v-3.74h1.13v3.83c0,1.06-.53,1.93-1.75,1.93-.82,0-1.37-.34-1.75-.99"/>
      <path class="cls-2" d="M379.91,23.25v-2.67h1.12v2.52c0,.66.18.89.6.89.35,0,.58-.15.87-.53v-2.88h1.12v4.27h-.91l-.08-.61h-.03c-.37.43-.78.72-1.36.72-.92,0-1.32-.64-1.32-1.71"/>
      <path class="cls-2" d="M384.81,20.59h.91l.08.56h.02c.37-.37.81-.67,1.39-.67.92,0,1.32.64,1.32,1.72v2.66h-1.12v-2.52c0-.66-.18-.89-.6-.89-.35,0-.57.17-.89.48v2.94h-1.12v-4.27Z"/>
      <path class="cls-2" d="M389.86,23.36v-1.89h-.6v-.83l.66-.05.13-1.15h.93v1.15h1.05v.88h-1.05v1.89c0,.49.2.72.58.72.14,0,.31-.05.42-.09l.18.82c-.23.08-.53.16-.9.16-1.01,0-1.4-.65-1.4-1.6"/>
      <path class="cls-2" d="M392.51,23.7c0-.92.74-1.4,2.46-1.58-.02-.42-.21-.74-.73-.74-.4,0-.78.17-1.17.4l-.4-.74c.5-.31,1.11-.56,1.78-.56,1.08,0,1.64.65,1.64,1.88v2.49h-.91l-.08-.46h-.03c-.37.32-.8.56-1.29.56-.76,0-1.27-.54-1.27-1.27M394.98,23.67v-.86c-1.04.13-1.4.42-1.4.8,0,.34.24.48.56.48s.56-.15.83-.42"/>
      <path class="cls-2" d="M375.45,31.2c0-1.39.87-2.24,1.79-2.24.48,0,.78.18,1.08.47l-.04-.67v-1.5h1.11v6.08h-.91l-.08-.44h-.03c-.31.3-.74.55-1.18.55-1.06,0-1.75-.84-1.75-2.24M378.29,32.07v-1.87c-.26-.24-.53-.32-.8-.32-.48,0-.88.46-.88,1.31s.32,1.33.88,1.33c.3,0,.55-.12.8-.44"/>
      <path class="cls-2" d="M380.34,31.2c0-1.38.98-2.24,1.99-2.24,1.17,0,1.78.86,1.78,2.04,0,.21-.02.42-.05.52h-2.63c.09.7.55,1.07,1.18,1.07.35,0,.66-.11.96-.3l.38.69c-.42.29-.96.47-1.49.47-1.2,0-2.13-.83-2.13-2.24M383.15,30.76c0-.57-.26-.94-.81-.94-.45,0-.85.32-.93.94h1.74Z"/>
      <path class="cls-2" d="M387.94,27.68h1.33l1.81,5.65h-1.18l-.4-1.45h-1.83l-.4,1.45h-1.14l1.81-5.65ZM387.92,31.01h1.34l-.17-.62c-.18-.59-.33-1.23-.49-1.84h-.04c-.15.62-.31,1.26-.48,1.84l-.17.62Z"/>
      <path class="cls-2" d="M391.65,29.06h.92l.08.56h.02c.37-.37.81-.67,1.39-.67.92,0,1.32.64,1.32,1.72v2.66h-1.12v-2.52c0-.66-.18-.89-.6-.89-.35,0-.57.17-.88.48v2.94h-1.12v-4.27Z"/>
      <path class="cls-2" d="M396.29,31.2c0-1.39.87-2.24,1.79-2.24.48,0,.78.18,1.08.47l-.04-.67v-1.5h1.11v6.08h-.91l-.08-.44h-.03c-.31.3-.74.55-1.18.55-1.06,0-1.75-.84-1.75-2.24M399.13,32.07v-1.87c-.26-.24-.53-.32-.8-.32-.48,0-.88.46-.88,1.31s.32,1.33.88,1.33c.3,0,.55-.12.8-.44"/>
      <path class="cls-2" d="M401.23,32.17c0-.92.74-1.4,2.46-1.58-.02-.42-.21-.74-.73-.74-.4,0-.78.17-1.17.4l-.4-.74c.5-.31,1.11-.56,1.78-.56,1.08,0,1.64.65,1.64,1.88v2.49h-.91l-.08-.46h-.03c-.37.32-.8.56-1.29.56-.76,0-1.27-.54-1.27-1.27M403.7,32.14v-.86c-1.04.13-1.39.42-1.39.8,0,.34.24.48.56.48s.56-.15.83-.42"/>
      <path class="cls-2" d="M405.95,32.13v-4.89h1.12v4.93c0,.26.11.34.22.34.05,0,.08,0,.15-.02l.14.83c-.13.05-.31.1-.58.1-.78,0-1.05-.51-1.05-1.3"/>
      <path class="cls-2" d="M408.31,31.73v-2.67h1.12v2.52c0,.66.18.89.59.89.35,0,.58-.15.87-.53v-2.88h1.12v4.27h-.91l-.08-.61h-.03c-.37.43-.78.72-1.36.72-.92,0-1.32-.64-1.32-1.71"/>
      <path class="cls-2" d="M412.94,31.2c0-1.42,1.02-2.24,2.18-2.24.53,0,.93.21,1.24.47l-.53.72c-.21-.18-.41-.28-.65-.28-.66,0-1.1.53-1.1,1.33s.45,1.33,1.06,1.33c.3,0,.59-.15.83-.34l.45.74c-.41.36-.93.52-1.4.52-1.18,0-2.08-.82-2.08-2.24"/>
      <path class="cls-2" d="M417.23,29.06h1.12v4.27h-1.12v-4.27ZM417.26,27.83l1.3-1.55.77.75-1.51,1.34-.56-.54Z"/>
      <path class="cls-2" d="M419.33,32.17c0-.92.74-1.4,2.46-1.58-.02-.42-.21-.74-.73-.74-.4,0-.78.17-1.17.4l-.4-.74c.5-.31,1.11-.56,1.78-.56,1.08,0,1.64.65,1.64,1.88v2.49h-.92l-.08-.46h-.03c-.37.32-.8.56-1.29.56-.76,0-1.27-.54-1.27-1.27M421.79,32.14v-.86c-1.04.13-1.4.42-1.4.8,0,.34.24.48.56.48s.56-.15.83-.42"/>
      <circle class="cls-2" cx="171.26" cy="18.32" r="2.8"/>
      <circle class="cls-2" cx="177.84" cy="18.32" r="2.8"/>
      <circle class="cls-2" cx="184.43" cy="18.32" r="2.8"/>
      <circle class="cls-2" cx="177.84" cy="24.91" r="2.8"/>
      <circle class="cls-2" cx="177.84" cy="31.49" r="2.8"/>
      <path class="cls-2" d="M195.05,28.09h-2.08v-1.24h5.44v1.24h-2.08v5.68h-1.28v-5.68Z"/>
      <path class="cls-2" d="M202.76,32.29c-.11.4-.73,1.58-2.32,1.58-1.48,0-2.57-1.09-2.57-2.62s1.09-2.62,2.57-2.62c1.38,0,2.47,1.09,2.47,2.52,0,.15-.02.27-.03.36l-.02.14h-3.76c.11.7.63,1.19,1.33,1.19.58,0,.94-.34,1.04-.54h1.29ZM201.67,30.8c-.11-.64-.53-1.14-1.24-1.14-.75,0-1.19.49-1.33,1.14h2.57Z"/>
      <path class="cls-2" d="M203.64,26.85h1.24v6.92h-1.24v-6.92Z"/>
      <path class="cls-2" d="M210.51,32.29c-.11.4-.73,1.58-2.32,1.58-1.48,0-2.57-1.09-2.57-2.62s1.09-2.62,2.57-2.62c1.38,0,2.47,1.09,2.47,2.52,0,.15-.02.27-.03.36l-.02.14h-3.76c.11.7.63,1.19,1.33,1.19.58,0,.94-.34,1.04-.54h1.29ZM209.43,30.8c-.11-.64-.53-1.14-1.24-1.14-.75,0-1.19.49-1.33,1.14h2.57Z"/>
      <path class="cls-2" d="M211.8,29.91h-.84v-1.19h.84v-.74c0-.75.48-1.24,1.24-1.24h1.09v1.09h-.74c-.2,0-.35.15-.35.35v.54h1.09v1.19h-1.09v3.86h-1.24v-3.86Z"/>
      <path class="cls-2" d="M219.45,31.25c0,1.53-1.09,2.62-2.57,2.62s-2.57-1.09-2.57-2.62,1.09-2.62,2.57-2.62,2.57,1.09,2.57,2.62ZM218.21,31.25c0-.89-.59-1.48-1.33-1.48s-1.33.59-1.33,1.48.59,1.48,1.33,1.48,1.33-.59,1.33-1.48Z"/>
      <path class="cls-2" d="M220.19,28.73h1.14l.1.49h.05c.09-.11.21-.21.34-.3.23-.15.57-.3,1.05-.3,1.14,0,1.98.84,1.98,2.13v3.02h-1.24v-2.92c0-.64-.44-1.09-1.09-1.09s-1.09.44-1.09,1.09v2.92h-1.24v-5.04Z"/>
      <path class="cls-2" d="M232.7,31.89c-.16.79-.78,1.98-2.37,1.98-1.48,0-2.57-1.09-2.57-2.62s1.09-2.62,2.57-2.62c1.59,0,2.21,1.19,2.37,1.93h-1.24c-.11-.29-.4-.79-1.14-.79s-1.33.59-1.33,1.48.59,1.48,1.33,1.48,1.03-.49,1.14-.84h1.24Z"/>
      <path class="cls-2" d="M236.43,33.28h-.05c-.09.11-.21.21-.35.3-.24.15-.58.3-1.09.3-1.15,0-1.83-.7-1.83-1.53,0-.99.69-1.68,2.08-1.68h1.14v-.1c0-.55-.34-.94-.89-.94s-.84.36-.89.64h-1.24c.11-.83.78-1.63,2.13-1.63s2.13.85,2.13,1.93v3.21h-1.04l-.1-.49ZM236.34,31.6h-1.04c-.64,0-.94.25-.94.64s.29.64.79.64c.75,0,1.19-.44,1.19-1.14v-.15Z"/>
      <path class="cls-2" d="M225.78,28.73h1.24v5.04h-1.24v-5.04Z"/>
      <circle class="cls-2" cx="226.4" cy="27.27" r=".73"/>
      <polygon class="cls-2" points="217.32 26.6 218.61 26.6 217.42 28.04 216.38 28.04 217.32 26.6"/>
      <path class="cls-2" d="M193.52,17.16h4.6v1.19h-3.31v1.68h3.06v1.19h-3.06v2.87h-1.29v-6.92Z"/>
      <path class="cls-2" d="M198.52,19.04h1.24v2.92c0,.64.45,1.09,1.09,1.09s1.09-.45,1.09-1.09v-2.92h1.24v5.04h-1.14l-.1-.49h-.05c-.09.11-.21.21-.34.3-.23.15-.58.3-1.05.3-1.14,0-1.98-.84-1.98-2.13v-3.02Z"/>
      <path class="cls-2" d="M204.15,19.04h1.14l.1.49h.05c.09-.11.21-.21.34-.3.23-.15.57-.3,1.05-.3,1.14,0,1.98.84,1.98,2.13v3.02h-1.24v-2.92c0-.64-.45-1.09-1.09-1.09s-1.09.44-1.09,1.09v2.92h-1.24v-5.04Z"/>
      <path class="cls-2" d="M213.35,23.53h-.05c-.1.13-.22.24-.36.33-.24.16-.61.32-1.13.32-1.29,0-2.32-1.04-2.32-2.62s1.04-2.62,2.32-2.62c.5,0,.85.17,1.09.33.14.09.26.2.35.32h.05v-2.42h1.24v6.92h-1.09l-.1-.54ZM213.3,21.56c0-.95-.53-1.48-1.29-1.48s-1.29.53-1.29,1.48.53,1.48,1.29,1.48,1.29-.53,1.29-1.48Z"/>
      <path class="cls-2" d="M218.64,23.58h-.05c-.09.11-.21.21-.35.3-.24.15-.58.3-1.09.3-1.15,0-1.83-.7-1.83-1.53,0-.99.69-1.68,2.08-1.68h1.14v-.1c0-.55-.34-.94-.89-.94s-.84.36-.89.64h-1.24c.11-.83.78-1.63,2.13-1.63s2.13.85,2.13,1.93v3.21h-1.04l-.1-.49ZM218.54,21.9h-1.04c-.64,0-.94.25-.94.64s.29.64.79.64c.75,0,1.19-.44,1.19-1.14v-.15Z"/>
      <path class="cls-2" d="M225.41,22.2c-.16.79-.78,1.98-2.37,1.98-1.48,0-2.57-1.09-2.57-2.62s1.09-2.62,2.57-2.62c1.59,0,2.21,1.19,2.37,1.93h-1.24c-.11-.29-.4-.79-1.14-.79s-1.33.59-1.33,1.48.59,1.48,1.33,1.48,1.03-.49,1.14-.84h1.24Z"/>
      <path class="cls-2" d="M226.1,19.04h1.24v5.04h-1.24v-5.04Z"/>
      <path class="cls-2" d="M233.22,21.56c0,1.53-1.09,2.62-2.57,2.62s-2.57-1.09-2.57-2.62,1.09-2.62,2.57-2.62,2.57,1.09,2.57,2.62ZM231.98,21.56c0-.89-.59-1.48-1.33-1.48s-1.33.59-1.33,1.48.59,1.48,1.33,1.48,1.33-.59,1.33-1.48ZM231.09,16.91h1.29l-1.19,1.43h-1.04l.94-1.43Z"/>
      <path class="cls-2" d="M233.96,19.04h1.14l.1.49h.05c.09-.11.21-.21.34-.3.23-.15.57-.3,1.05-.3,1.14,0,1.98.84,1.98,2.13v3.02h-1.24v-2.92c0-.64-.45-1.09-1.09-1.09s-1.09.44-1.09,1.09v2.92h-1.24v-5.04Z"/>
      <circle class="cls-2" cx="226.72" cy="17.58" r=".73"/>
      <polygon class="cls-2" points="455.53 23.3 459.02 33.77 462.72 33.77 459.24 23.3 455.53 23.3"/>
      <polygon class="cls-2" points="448.78 23.3 452.26 33.77 454.22 33.77 455.1 31.15 452.48 23.3 448.78 23.3"/>
      <path class="cls-2" d="M446.93,30.28h0c-1.02,0-1.85.83-1.85,1.85s.83,1.85,1.85,1.85h0c1.02,0,1.85-.83,1.85-1.85s-.83-1.85-1.85-1.85"/>
      <path class="cls-2" d="M468.46,24.24c-.16-.3-.38-.53-.67-.7-.29-.16-.64-.24-1.04-.24h-1.4v4.06h1.38c.41,0,.77-.08,1.06-.24.29-.16.52-.4.68-.7.16-.3.23-.67.23-1.09s-.08-.78-.23-1.09M467.82,26.11c-.1.21-.24.36-.43.47s-.42.16-.71.16h-.6v-2.79h.63c.27,0,.5.05.69.15s.33.26.42.46c.09.21.14.46.14.77s-.05.57-.14.78"/>
      <path class="cls-2" d="M469.62,23.89c.11,0,.21-.04.29-.11.08-.08.12-.17.12-.27s-.04-.2-.12-.28c-.08-.08-.18-.11-.29-.11s-.21.04-.29.11c-.08.08-.12.17-.12.28s.04.2.12.27c.08.08.18.11.29.11"/>
      <rect class="cls-2" x="469.26" y="24.32" width=".72" height="3.04"/>
      <path class="cls-2" d="M473.33,24.99c-.11-.23-.26-.41-.45-.53-.19-.12-.4-.18-.64-.18-.18,0-.33.03-.44.09-.12.06-.21.13-.27.22-.07.08-.12.16-.16.24h-.04v-.5h-.7v4.19h.72v-1.62h.03c.04.07.09.15.16.23.07.08.16.15.28.21s.26.09.43.09c.24,0,.45-.06.64-.18.19-.12.34-.3.45-.54.11-.23.16-.52.16-.85s-.06-.62-.17-.86M472.69,26.35c-.06.15-.14.27-.24.35-.11.08-.24.13-.4.13s-.28-.04-.39-.12c-.11-.08-.19-.2-.24-.35-.06-.15-.08-.32-.08-.52s.03-.37.08-.51c.05-.14.14-.26.24-.34.11-.08.24-.12.39-.12s.29.04.4.12c.11.08.19.2.24.34.05.15.08.31.08.5s-.03.36-.08.51"/>
      <path class="cls-2" d="M474.49,27.27c.15.09.33.13.53.13.23,0,.42-.05.58-.16.16-.11.27-.25.34-.42h.03v.54h.7v-3.04h-.72v1.76c0,.15-.03.28-.1.39-.06.1-.15.18-.24.23-.1.05-.2.08-.31.08-.17,0-.31-.06-.42-.17-.11-.11-.16-.27-.16-.46v-1.83h-.72v1.94c0,.24.04.45.13.62.09.17.2.3.36.39"/>
      <path class="cls-2" d="M478.69,27.38c.07-.02.12-.03.16-.04l-.12-.56s-.05.01-.09.02c-.04,0-.08,0-.12,0-.06,0-.11,0-.16-.03-.05-.02-.09-.05-.12-.1-.03-.05-.04-.12-.04-.22v-1.57h.6v-.55h-.6v-.73h-.72v.73h-.43v.55h.43v1.69c0,.19.04.35.12.48.08.13.2.22.34.28.14.06.31.09.49.08.1,0,.19-.01.26-.03"/>
      <path class="cls-2" d="M481.73,27.36v-2.04c0-.2-.04-.37-.11-.51-.07-.13-.17-.24-.29-.32-.12-.08-.25-.13-.4-.17-.15-.03-.29-.05-.44-.05-.21,0-.41.03-.58.09-.18.06-.32.16-.45.28-.12.12-.21.28-.26.46l.67.1c.04-.1.1-.19.21-.27.1-.08.24-.11.42-.11s.29.04.38.12c.09.08.13.2.13.35h0c0,.08-.03.13-.08.16-.05.03-.13.06-.24.07-.11.01-.26.03-.43.05-.15.02-.29.04-.43.08s-.26.09-.37.15c-.11.07-.2.16-.26.27-.06.11-.09.25-.09.43,0,.2.04.37.13.5s.21.24.36.31c.15.07.33.1.52.1.16,0,.3-.02.41-.07.12-.04.22-.1.3-.18.08-.07.14-.15.18-.24h.02v.42h.69ZM481.02,26.27c0,.11-.03.22-.09.31-.06.09-.14.17-.24.23-.11.06-.23.09-.37.09s-.27-.03-.37-.1c-.1-.07-.14-.17-.14-.3,0-.09.02-.17.07-.23.05-.06.12-.1.2-.14.08-.03.18-.06.29-.07.05,0,.1-.01.17-.02.06,0,.13-.02.2-.03.07-.01.13-.03.18-.04.05-.02.09-.03.11-.05v.36Z"/>
      <path class="cls-2" d="M482.9,27.22c.22.13.48.2.78.2.25,0,.48-.05.67-.14.19-.09.34-.22.45-.39.11-.17.17-.36.19-.57h-.69c-.02.11-.06.2-.12.28-.06.08-.13.13-.21.18-.08.04-.18.06-.28.06-.15,0-.28-.04-.39-.12-.11-.08-.2-.19-.26-.34-.06-.15-.09-.33-.09-.53s.03-.38.09-.53c.06-.15.15-.26.26-.34.11-.08.24-.12.39-.12.17,0,.31.05.42.15.1.1.17.22.2.37h.69c-.02-.22-.08-.41-.19-.58-.11-.16-.27-.29-.46-.38-.19-.09-.41-.14-.66-.14-.3,0-.55.07-.77.2-.22.13-.38.32-.5.55-.12.24-.18.51-.18.82s.06.58.18.82c.12.24.28.42.5.55"/>
      <path class="cls-2" d="M485.83,23.89c.11,0,.21-.04.29-.11.08-.08.12-.17.12-.27s-.04-.2-.12-.28c-.08-.08-.18-.11-.29-.11s-.21.04-.29.11c-.08.08-.12.17-.12.28s.04.2.12.27c.08.08.18.11.29.11"/>
      <rect class="cls-2" x="485.47" y="24.32" width=".72" height="3.04"/>
      <path class="cls-2" d="M489.43,26.68c.12-.23.18-.51.18-.82s-.06-.59-.18-.83c-.12-.24-.29-.42-.51-.55-.22-.13-.48-.2-.77-.2s-.55.06-.77.2c-.22.13-.39.31-.51.55-.12.24-.18.51-.18.83s.06.59.18.82c.12.23.29.42.51.55.22.13.48.2.77.2s.55-.06.77-.2c.22-.13.39-.31.51-.55M488.8,26.35c-.05.15-.13.27-.24.36-.11.09-.24.13-.4.13s-.3-.04-.41-.13c-.11-.09-.19-.21-.24-.36-.05-.15-.08-.32-.08-.5s.03-.36.08-.51c.05-.15.13-.27.24-.36.11-.09.25-.13.41-.13s.3.04.4.13c.11.09.19.21.24.36.05.15.08.32.08.51s-.03.35-.08.5"/>
      <polygon class="cls-2" points="489.02 23.01 488.32 23.01 487.87 23.92 488.41 23.92 489.02 23.01"/>
      <path class="cls-2" d="M492.28,24.41c-.16-.09-.34-.13-.55-.13-.23,0-.42.05-.57.15-.15.1-.27.24-.34.41h-.04v-.52h-.69v3.04h.72v-1.78c0-.15.03-.27.08-.37.06-.1.13-.18.23-.24.1-.05.21-.08.33-.08.18,0,.33.06.43.17.11.11.16.27.16.48v1.83h.72v-1.94c0-.24-.04-.45-.13-.62-.09-.17-.21-.3-.36-.39"/>
      <path class="cls-2" d="M497.14,23.48c-.21-.12-.47-.17-.79-.17h-1.52v4.06h.74v-1.37h.78c.31,0,.58-.06.79-.17.21-.11.38-.27.48-.48.11-.2.16-.43.16-.69s-.05-.49-.16-.69c-.11-.2-.27-.36-.48-.48M496.95,25.03c-.06.11-.14.2-.26.26-.12.06-.27.09-.45.09h-.68v-1.47h.67c.18,0,.33.03.45.09.12.06.2.15.26.26.06.11.08.24.08.38s-.03.27-.08.38"/>
      <path class="cls-2" d="M499.71,24.28c-.17,0-.33.05-.46.14-.13.1-.23.23-.29.41h-.03v-.51h-.7v3.04h.72v-1.79c0-.13.03-.24.09-.34.06-.1.14-.18.24-.23s.22-.08.35-.08c.06,0,.12,0,.19.01.07,0,.11.02.14.03v-.66s-.07-.01-.12-.01c-.05,0-.09,0-.13,0"/>
      <path class="cls-2" d="M502.4,24.48c-.22-.13-.48-.2-.77-.2s-.55.06-.77.2c-.22.13-.39.31-.51.55-.12.24-.18.51-.18.83s.06.59.18.82c.12.23.29.42.51.55.22.13.48.2.77.2s.55-.06.77-.2c.22-.13.39-.31.51-.55.12-.23.18-.51.18-.82s-.06-.59-.18-.83c-.12-.24-.29-.42-.51-.55M502.28,26.35c-.05.15-.13.27-.24.36-.11.09-.24.13-.4.13s-.3-.04-.41-.13c-.11-.09-.19-.21-.24-.36-.05-.15-.08-.32-.08-.5s.03-.36.08-.51c.05-.15.13-.27.24-.36.11-.09.25-.13.41-.13s.3.04.4.13c.11.09.19.21.24.36.05.15.08.32.08.51s-.03.35-.08.5"/>
      <polygon class="cls-2" points="504.69 26.58 504.66 26.58 503.96 24.32 503.2 24.32 504.28 27.36 505.07 27.36 506.16 24.32 505.39 24.32 504.69 26.58"/>
      <rect class="cls-2" x="506.52" y="24.32" width=".72" height="3.04"/>
      <path class="cls-2" d="M506.88,23.11c-.11,0-.21.04-.29.11-.08.08-.12.17-.12.28s.04.2.12.27c.08.08.18.11.29.11s.21-.04.29-.11c.08-.08.12-.17.12-.27s-.04-.2-.12-.28c-.08-.08-.18-.11-.29-.11"/>
      <path class="cls-2" d="M510.07,24.41c-.16-.09-.34-.13-.55-.13-.23,0-.42.05-.57.15-.15.1-.27.24-.34.41h-.04v-.52h-.69v3.04h.72v-1.78c0-.15.03-.27.08-.37.06-.1.13-.18.23-.24.1-.05.21-.08.33-.08.18,0,.33.06.43.17.11.11.16.27.16.48v1.83h.72v-1.94c0-.24-.04-.45-.13-.62-.09-.17-.21-.3-.36-.39"/>
      <path class="cls-2" d="M512.12,24.98c.11-.08.24-.12.39-.12.17,0,.31.05.42.15.1.1.17.22.2.37h.69c-.02-.22-.08-.41-.19-.58-.11-.16-.27-.29-.46-.38-.19-.09-.41-.14-.66-.14-.3,0-.55.07-.77.2-.22.13-.39.32-.5.55-.12.24-.18.51-.18.82s.06.58.18.82c.12.24.28.42.5.55.22.13.48.2.78.2.25,0,.48-.05.67-.14.19-.09.34-.22.45-.39.11-.17.17-.36.19-.57h-.69c-.02.11-.06.2-.12.28-.06.08-.13.13-.21.18-.08.04-.18.06-.28.06-.15,0-.28-.04-.39-.12-.11-.08-.2-.19-.26-.34-.06-.15-.09-.33-.09-.53s.03-.38.09-.53c.06-.15.15-.26.26-.34"/>
      <path class="cls-2" d="M514.66,23.11c-.11,0-.21.04-.29.11-.08.08-.12.17-.12.28s.04.2.12.27c.08.08.18.11.29.11s.21-.04.29-.11c.08-.08.12-.17.12-.27s-.04-.2-.12-.28c-.08-.08-.18-.11-.29-.11"/>
      <rect class="cls-2" x="514.3" y="24.32" width=".72" height="3.04"/>
      <path class="cls-2" d="M517.72,24.5c-.12-.08-.25-.13-.4-.17-.15-.03-.29-.05-.44-.05-.21,0-.41.03-.58.09-.18.06-.32.16-.45.28-.12.12-.21.28-.26.46l.67.1c.04-.1.1-.19.21-.27.1-.08.24-.11.42-.11s.29.04.38.12c.09.08.13.2.13.35h0c0,.08-.03.13-.08.16-.05.03-.13.06-.24.07-.11.01-.26.03-.43.05-.15.02-.29.04-.43.08s-.26.09-.37.15c-.11.07-.2.16-.26.27-.06.11-.09.25-.09.43,0,.2.04.37.13.5s.21.24.36.31c.15.07.33.1.52.1.16,0,.3-.02.41-.07.12-.04.22-.1.3-.18.08-.07.14-.15.18-.24h.02v.42h.69v-2.04c0-.2-.04-.37-.11-.51-.07-.13-.17-.24-.29-.32M517.41,26.27c0,.11-.03.22-.09.31-.06.09-.14.17-.24.23-.11.06-.23.09-.37.09s-.27-.03-.37-.1c-.1-.07-.14-.17-.14-.3,0-.09.02-.17.07-.23.05-.06.12-.1.2-.14.08-.03.18-.06.29-.07.05,0,.1-.01.17-.02.06,0,.13-.02.2-.03.07-.01.13-.03.18-.04.05-.02.09-.03.11-.05v.36Z"/>
      <rect class="cls-2" x="518.76" y="23.3" width=".72" height="4.06"/>
      <path class="cls-2" d="M467.34,31.22h-.03c-.04-.07-.09-.15-.16-.24-.07-.08-.16-.16-.27-.22-.12-.06-.26-.09-.44-.09-.23,0-.45.06-.64.18-.19.12-.34.3-.45.53-.11.23-.17.52-.17.86s.06.62.16.85c.11.23.26.41.45.54.19.12.4.18.64.18.17,0,.32-.03.43-.09.12-.06.21-.13.28-.21.07-.08.12-.16.16-.23h.04v.48h.71v-4.06h-.72v1.52ZM467.28,32.76c-.06.15-.14.26-.24.35-.11.08-.24.12-.39.12s-.29-.04-.4-.13c-.11-.09-.19-.2-.24-.35-.05-.15-.08-.32-.08-.51s.03-.36.08-.5c.05-.15.13-.26.24-.34.11-.08.24-.12.4-.12s.28.04.39.12c.11.08.19.19.24.34.05.15.08.32.08.51s-.03.37-.08.52"/>
      <path class="cls-2" d="M471.01,31.05c-.13-.13-.28-.22-.44-.28-.17-.06-.34-.09-.53-.09-.29,0-.54.07-.76.2-.22.13-.38.32-.5.55-.12.24-.18.51-.18.82s.06.59.18.83c.12.23.29.42.51.54.22.13.48.19.79.19.24,0,.45-.04.63-.11.18-.07.33-.17.45-.3.12-.13.2-.29.24-.46l-.67-.08c-.03.09-.08.16-.14.22s-.14.1-.22.13c-.08.03-.18.04-.28.04-.16,0-.29-.03-.41-.1-.12-.07-.21-.16-.27-.29-.06-.12-.09-.27-.1-.44h2.12v-.22c0-.27-.04-.5-.11-.69-.07-.19-.18-.35-.3-.48M469.3,31.95c0-.12.04-.23.09-.33.06-.11.15-.21.26-.28.11-.07.24-.11.39-.11.14,0,.26.03.36.09s.18.15.24.25c.06.11.09.23.09.37h-1.43Z"/>
      <polygon class="cls-2" points="475.5 32.65 475.45 32.65 474.25 29.7 473.35 29.7 473.35 33.76 474.05 33.76 474.05 30.97 474.09 30.97 475.21 33.75 475.74 33.75 476.86 30.97 476.9 30.97 476.9 33.76 477.61 33.76 477.61 29.7 476.71 29.7 475.5 32.65"/>
      <path class="cls-2" d="M480.39,30.9c-.12-.08-.25-.13-.4-.17-.15-.03-.29-.05-.44-.05-.21,0-.41.03-.58.09-.18.06-.32.16-.45.28-.12.12-.21.28-.26.46l.67.1c.04-.1.1-.19.21-.27.1-.08.24-.11.42-.11s.29.04.38.12c.09.08.13.2.13.35h0c0,.08-.03.13-.08.16-.05.03-.13.06-.24.07-.11.01-.26.03-.43.05-.15.02-.29.04-.43.08s-.26.09-.37.15c-.11.07-.2.16-.26.27-.06.11-.09.25-.09.43,0,.2.04.37.13.5s.21.24.36.31c.15.07.33.1.52.1.16,0,.3-.02.41-.07.12-.04.22-.1.3-.18.08-.07.14-.15.18-.24h.02v.42h.69v-2.04c0-.2-.04-.37-.11-.51-.07-.13-.17-.24-.29-.32M480.07,32.67c0,.11-.03.22-.09.31-.06.09-.14.17-.24.23-.11.06-.23.09-.37.09s-.27-.03-.37-.1c-.1-.07-.14-.17-.14-.3,0-.09.02-.17.07-.23.05-.06.12-.1.2-.14.08-.03.18-.06.29-.07.05,0,.1-.01.17-.02.06,0,.13-.02.2-.03.07-.01.13-.03.18-.04.05-.02.09-.03.11-.05v.36Z"/>
      <polygon class="cls-2" points="480.45 29.41 479.75 29.41 479.31 30.32 479.84 30.32 480.45 29.41"/>
      <rect class="cls-2" x="481.42" y="29.7" width=".72" height="4.06"/>
      <path class="cls-2" d="M484.87,30.9c-.12-.08-.25-.13-.4-.17-.15-.03-.29-.05-.44-.05-.21,0-.41.03-.58.09-.18.06-.32.16-.45.28-.12.12-.21.28-.26.46l.67.1c.04-.1.1-.19.21-.27.1-.08.24-.11.42-.11s.29.04.38.12c.09.08.13.2.13.35h0c0,.08-.03.13-.08.16-.05.03-.13.06-.24.07-.11.01-.26.03-.43.05-.15.02-.29.04-.43.08s-.26.09-.37.15c-.11.07-.2.16-.26.27-.06.11-.09.25-.09.43,0,.2.04.37.13.5s.21.24.36.31c.15.07.33.1.52.1.16,0,.3-.02.41-.07.12-.04.22-.1.3-.18.08-.07.14-.15.18-.24h.02v.42h.69v-2.04c0-.2-.04-.37-.11-.51-.07-.13-.17-.24-.29-.32M484.55,32.67c0,.11-.03.22-.09.31-.06.09-.14.17-.24.23-.11.06-.23.09-.37.09s-.27-.03-.37-.1c-.1-.07-.14-.17-.14-.3,0-.09.02-.17.07-.23.05-.06.12-.1.2-.14.08-.03.18-.06.29-.07.05,0,.1-.01.17-.02.06,0,.13-.02.2-.03.07-.01.13-.03.18-.04.05-.02.09-.03.11-.05v.36Z"/>
      <path class="cls-2" d="M487.94,31.22h-.04c-.04-.07-.09-.15-.16-.24-.07-.08-.16-.16-.28-.22-.12-.06-.26-.09-.44-.09-.23,0-.45.06-.64.18-.19.12-.34.29-.45.52-.11.23-.17.51-.17.85s.06.61.17.83c.11.22.26.38.45.5.19.11.4.17.63.17.17,0,.32-.03.43-.08.12-.05.21-.12.28-.2s.12-.15.16-.23h.04v.58c0,.22-.07.38-.2.47-.13.1-.3.15-.51.15-.14,0-.26-.02-.36-.06-.09-.04-.17-.09-.22-.14-.06-.06-.1-.11-.13-.17l-.65.16c.04.14.12.26.23.38.11.11.26.21.45.27.19.07.41.1.66.1.27,0,.52-.04.73-.13.21-.08.38-.21.51-.38.12-.17.19-.38.19-.64v-3.09h-.71v.5ZM487.86,32.73c-.06.14-.14.24-.24.32-.11.07-.24.11-.39.11s-.29-.04-.4-.12c-.11-.08-.19-.19-.24-.33-.05-.14-.08-.3-.08-.49s.03-.35.08-.49c.05-.14.13-.26.24-.34.11-.08.24-.12.4-.12s.28.04.39.12c.11.08.19.19.24.34.05.14.08.31.08.5s-.03.36-.08.5"/>
      <path class="cls-2" d="M491.37,30.9c-.12-.08-.25-.13-.4-.17-.15-.03-.29-.05-.44-.05-.21,0-.41.03-.58.09-.18.06-.32.16-.45.28-.12.12-.21.28-.26.46l.67.1c.04-.1.1-.19.21-.27.1-.08.24-.11.42-.11s.29.04.38.12c.09.08.13.2.13.35h0c0,.08-.03.13-.08.16-.05.03-.13.06-.24.07-.11.01-.26.03-.43.05-.15.02-.29.04-.43.08s-.26.09-.37.15c-.11.07-.2.16-.26.27-.06.11-.09.25-.09.43,0,.2.04.37.13.5s.21.24.36.31c.15.07.33.1.52.1.16,0,.3-.02.41-.07.12-.04.22-.1.3-.18.08-.07.14-.15.18-.24h.02v.42h.69v-2.04c0-.2-.04-.37-.11-.51-.07-.13-.17-.24-.29-.32M491.05,32.67c0,.11-.03.22-.09.31-.06.09-.14.17-.24.23-.11.06-.23.09-.37.09s-.27-.03-.37-.1c-.1-.07-.14-.17-.14-.3,0-.09.02-.17.07-.23.05-.06.12-.1.2-.14.08-.03.18-.06.29-.07.05,0,.1-.01.17-.02.06,0,.13-.02.2-.03.07-.01.13-.03.18-.04.05-.02.09-.03.11-.05v.36Z"/>
      <path class="cls-2" d="M447.95,16.89c-.12.11-.28.21-.48.3-.2.09-.45.13-.74.13s-.55-.05-.77-.15c-.23-.1-.42-.24-.57-.42-.16-.18-.28-.39-.36-.63-.08-.24-.12-.51-.12-.8s.04-.57.13-.81.21-.45.37-.63c.16-.18.36-.31.59-.41s.49-.14.77-.14c.26,0,.48.04.68.11.19.07.35.16.48.27l-.21.39h-.06c-.1-.09-.22-.17-.36-.23-.14-.06-.3-.09-.49-.09-.2,0-.39.04-.55.11-.16.07-.3.17-.41.3-.11.13-.2.29-.26.48-.06.19-.09.4-.09.63s.03.46.09.65.15.36.26.49c.11.14.25.24.41.31.16.07.35.11.55.11s.37-.03.5-.1c.13-.06.25-.14.35-.24h.08l.22.36Z"/>
      <path class="cls-2" d="M448.37,15.82c0-.24.03-.45.1-.64.07-.18.16-.34.28-.47s.26-.22.42-.29c.16-.07.34-.1.54-.1s.37.03.54.1c.16.06.31.16.42.28s.21.28.28.47c.07.19.1.4.1.65s-.03.45-.1.64-.16.34-.28.47c-.12.13-.26.22-.42.29-.16.07-.34.1-.54.1s-.37-.03-.54-.1c-.16-.06-.31-.16-.42-.28-.12-.13-.21-.28-.28-.47-.07-.19-.1-.4-.1-.65ZM450.51,15.82c0-.2-.02-.37-.05-.51s-.09-.25-.16-.34c-.07-.09-.15-.15-.25-.19-.1-.04-.21-.06-.33-.06-.25,0-.44.09-.58.26s-.21.46-.21.86.07.68.21.85c.14.17.33.26.58.26s.44-.09.58-.26.21-.46.21-.86Z"/>
      <path class="cls-2" d="M452.3,17.26h-.54v-4.06l.45-.06h.09v4.12Z"/>
      <path class="cls-2" d="M453.08,14.58c.15-.07.31-.13.48-.18.18-.05.37-.07.58-.07.35,0,.61.07.77.2.16.14.24.34.24.62v1.56c0,.09.02.15.05.19s.08.05.14.05c.04,0,.07,0,.09-.01s.05-.01.06-.02h.03l.07.29s-.11.06-.18.08-.15.03-.23.03c-.15,0-.27-.03-.36-.1-.09-.06-.14-.17-.16-.32h-.04c-.06.11-.16.21-.31.29-.14.08-.31.12-.51.12-.24,0-.44-.06-.59-.18s-.22-.31-.22-.56c0-.22.06-.39.19-.51.13-.12.32-.22.57-.3l.85-.27v-.24c0-.19-.04-.33-.11-.42-.08-.09-.23-.13-.45-.13-.14,0-.28.02-.4.06-.13.04-.25.09-.36.15h-.06l-.14-.33ZM454.61,15.83l-.65.2c-.16.05-.27.11-.34.19-.07.08-.1.18-.1.31,0,.08.01.15.03.21.02.05.05.1.09.13.04.03.08.05.13.07s.1.02.16.02c.12,0,.24-.03.36-.08.12-.05.23-.12.31-.22v-.83Z"/>
      <path class="cls-2" d="M456.53,13.13h.09v1.55h.03c.08-.1.2-.18.35-.25.15-.07.32-.1.5-.1.34,0,.62.12.83.37.21.25.31.61.31,1.09,0,.27-.03.49-.1.69-.07.19-.16.35-.28.48-.12.13-.28.22-.45.28-.18.06-.38.09-.6.09s-.42-.02-.61-.07c-.19-.05-.36-.1-.5-.18v-3.89l.44-.05ZM456.64,16.84c.08.03.17.05.26.08.09.02.2.03.31.03.14,0,.26-.02.37-.06.11-.04.21-.1.28-.19.08-.09.13-.2.17-.35s.06-.31.06-.52-.02-.37-.05-.51c-.03-.14-.08-.25-.15-.34s-.15-.15-.24-.19c-.1-.04-.21-.06-.33-.06s-.25.03-.37.08c-.12.05-.22.12-.31.2v1.82Z"/>
      <path class="cls-2" d="M459.21,15.82c0-.24.03-.45.1-.64.07-.18.16-.34.28-.47.12-.13.26-.22.42-.29.16-.07.34-.1.54-.1s.37.03.54.1.31.16.42.28c.12.13.21.28.28.47.07.19.1.4.1.65s-.03.45-.1.64-.16.34-.28.47c-.12.13-.26.22-.42.29-.16.07-.34.1-.54.1s-.37-.03-.54-.1c-.16-.06-.31-.16-.42-.28-.12-.13-.21-.28-.28-.47-.07-.19-.1-.4-.1-.65ZM461.34,15.82c0-.2-.02-.37-.05-.51-.04-.14-.09-.25-.16-.34-.07-.09-.15-.15-.25-.19-.1-.04-.21-.06-.33-.06-.25,0-.44.09-.58.26-.14.18-.21.46-.21.86s.07.68.21.85c.14.17.33.26.58.26s.44-.09.58-.26.21-.46.21-.86Z"/>
      <path class="cls-2" d="M463.13,14.81c.06-.13.16-.24.29-.34.13-.09.27-.14.42-.14.07,0,.12,0,.16.01.04,0,.08.02.11.04l-.09.5h-.06s-.06-.03-.1-.04c-.04,0-.09-.01-.14-.01-.13,0-.24.03-.34.09-.1.06-.19.14-.25.25v2.09h-.54v-2.84l.39-.05h.09l.02.44h.04Z"/>
      <path class="cls-2" d="M464.52,14.58c.15-.07.31-.13.48-.18.18-.05.37-.07.58-.07.35,0,.61.07.77.2.16.14.24.34.24.62v1.56c0,.09.02.15.05.19s.08.05.14.05c.04,0,.07,0,.09-.01s.05-.01.06-.02h.03l.07.29s-.11.06-.18.08-.15.03-.23.03c-.15,0-.27-.03-.36-.1-.09-.06-.14-.17-.16-.32h-.04c-.06.11-.16.21-.31.29-.14.08-.31.12-.51.12-.24,0-.44-.06-.59-.18s-.22-.31-.22-.56c0-.22.06-.39.19-.51.13-.12.32-.22.57-.3l.85-.27v-.24c0-.19-.04-.33-.11-.42-.08-.09-.23-.13-.45-.13-.14,0-.28.02-.4.06-.13.04-.25.09-.36.15h-.06l-.14-.33ZM466.05,15.83l-.65.2c-.16.05-.27.11-.34.19-.07.08-.1.18-.1.31,0,.08.01.15.03.21.02.05.05.1.09.13.04.03.08.05.13.07s.1.02.16.02c.12,0,.24-.03.36-.08.12-.05.23-.12.31-.22v-.83Z"/>
      <path class="cls-2" d="M467.56,14.87c0-.1.03-.18.1-.24.07-.06.15-.1.25-.1s.18.03.24.1.1.14.1.24-.03.19-.1.25c-.07.06-.15.1-.24.1s-.18-.03-.25-.1c-.07-.06-.1-.15-.1-.25ZM467.56,16.98c0-.1.03-.18.1-.24.07-.06.15-.1.25-.1s.18.03.24.1c.07.06.1.14.1.24s-.03.19-.1.25-.15.1-.24.1-.18-.03-.25-.1c-.07-.06-.1-.15-.1-.25Z"/>
      <path class="cls-2" d="M270.81,15.18c1.23,0,2.24-1,2.24-2.24s-1-2.24-2.24-2.24-2.24,1-2.24,2.24,1,2.24,2.24,2.24h0ZM270.81,11.98c.53,0,.96.43.96.96s-.43.96-.96.96-.96-.43-.96-.96.43-.96.96-.96h0Z"/>
      <path class="cls-2" d="M275.92,15.18c1.23,0,2.24-1,2.24-2.24s-1-2.24-2.24-2.24-2.24,1-2.24,2.24,1,2.24,2.24,2.24h0ZM275.92,11.98c.53,0,.96.43.96.96s-.43.96-.96.96-.96-.43-.96-.96.43-.96.96-.96h0Z"/>
      <path class="cls-2" d="M281.03,11.98v-1.28c-1.23,0-2.23,1.01-2.23,2.24s1,2.24,2.23,2.24v-1.28c-.53,0-.96-.43-.96-.96s.43-.96.96-.96h0Z"/>
      <path class="cls-2" d="M262.81,12.94c0-1.23-.99-2.22-2.21-2.24v1.28c.52.01.94.44.94.96s-.42.95-.94.96v1.28c1.22-.01,2.21-1.01,2.21-2.24h0Z"/>
      <path class="cls-2" d="M265.69,15.18c1.23,0,2.24-1,2.24-2.24s-1-2.24-2.24-2.24-2.24,1-2.24,2.24,1,2.24,2.24,2.24h0ZM265.69,11.98c.53,0,.96.43.96.96s-.43.96-.96.96-.96-.43-.96-.96.43-.96.96-.96h0Z"/>
      <path class="cls-2" d="M275.93,25.25v-.48c0-.35-.29-.64-.64-.64s-.64.29-.64.64v2.07c.42-.04.85-.06,1.28-.06v-1.52h0Z"/>
      <path class="cls-2" d="M264.74,22.51h.33c0-.9.68-1.58,1.58-1.58v-.33c-.91,0-1.58-.68-1.58-1.58h-.33c0,.9-.68,1.58-1.58,1.58v.33c.91,0,1.58.68,1.58,1.58h0Z"/>
      <path class="cls-2" d="M268.9,22.51h.33c0-.9.68-1.58,1.58-1.58v-.33c-.91,0-1.58-.68-1.58-1.58h-.33c0,.9-.68,1.58-1.58,1.58v.33c.91,0,1.58.68,1.58,1.58h0Z"/>
      <path class="cls-2" d="M270.15,34.98c-.71.17-1.41.34-2.1.48,0,0,0,0,0,0l2.77.95,5.47-1.88c.3-.1.57-.24.82-.42h0c-2.37-.23-4.69.32-6.95.87h0Z"/>
      <path class="cls-2" d="M270.15,32.13c-2.3.55-4.51,1.08-6.66.78h0c.34.68.92,1.24,1.65,1.55h0c1.63-.05,3.3-.45,5.01-.86,2.6-.62,5.27-1.26,8-.71,0,0,0,0,0,0,.21-.42.32-.9.33-1.39h0c-2.84-.68-5.62-.01-8.32.64h0Z"/>
      <path class="cls-2" d="M270.8,29.06h0c-.21.05-.43.1-.64.15,0,0,0,0-.01,0-.18.04-.36.09-.54.13-.78.19-1.55.36-2.32.49h0c-.21.04-.43.07-.64.1h0c-.11.01-.22.03-.32.04h.02c-.99.12-1.97.14-2.93,0h.01c-.09-.01-.18-.03-.28-.05h0s0,0,0,0v1.52h0c2.26.41,4.58-.14,7-.72,2.7-.65,5.48-1.31,8.33-.64v-1.52c-2.62-.62-5.18-.11-7.68.48h0Z"/>
      <path class="cls-2" d="M260.6,31.46c0,2.48,1.57,4.68,3.92,5.48l6.3,2.16,6.3-2.16c2.34-.8,3.92-3.01,3.92-5.48v-15h-20.43v15h0ZM279.76,31.46c0,.66-.15,1.3-.41,1.88-.51,1.1-1.45,1.98-2.65,2.4l-5.88,2.02-5.88-2.02c-1.2-.41-2.14-1.29-2.65-2.4-.26-.58-.41-1.22-.41-1.88v-3.39h0c.42.15.85.26,1.28.34h0c.21.04.43.07.64.09.21.02.43.04.64.05v-3.48h.95v3.47c.21-.01.42-.03.64-.05.21-.02.42-.05.64-.08.21-.03.43-.06.64-.1.21-.04.42-.08.64-.12.21-.04.42-.09.64-.13v-2.99h.95v2.77c.21-.05.42-.1.63-.15,0,0,0,0,.01,0,.21-.05.43-.1.64-.15.43-.1.86-.2,1.29-.29.21-.04.43-.09.64-.13.22-.04.44-.08.66-.12h-.02v-5.43h3.83v5.27c.21.02.43.05.64.09.21.04.43.08.64.13.42.1.85.23,1.28.4h0v4.01h0ZM261.88,17.74h17.88v8.2c-.43-.17-.85-.3-1.28-.4v-6.52h-1.28v1.28h-1.28v-1.28h-1.28v1.28h-1.28v-1.28h-1.28v6.71c-.43.09-.86.19-1.29.29v-2.22h-3.51v3c-.21.04-.43.07-.64.1v-3.1h-3.51v3.1h0c-.43-.08-.85-.19-1.28-.35v-8.81h0Z"/>
      <path class="cls-2" d="M286.93,20c0-2.29,1.61-3.46,3.37-3.46,1.63,0,2.78.89,3.01,2.25l-1.31.27c-.17-.86-.83-1.39-1.7-1.39-1.14,0-2.03.81-2.03,2.33s.88,2.32,2.03,2.32c.88,0,1.49-.48,1.66-1.28l1.33.29c-.33,1.33-1.43,2.13-2.99,2.13-1.79,0-3.37-1.17-3.37-3.46h0Z"/>
      <path class="cls-2" d="M293.93,17.01c0-.42.32-.74.75-.74s.77.33.77.74-.33.75-.77.75-.75-.33-.75-.75h0ZM294.08,18.51h1.22v4.88h-1.22v-4.88h0Z"/>
      <path class="cls-2" d="M300.86,23.38h-1.22v-.74c-.31.47-.86.81-1.55.81-1.05,0-1.78-.7-1.78-1.76v-3.19h1.22v2.9c0,.57.36.97.93.97.75,0,1.18-.64,1.18-1.73v-2.14h1.22v4.88h0Z"/>
      <path class="cls-2" d="M301.68,20.94c0-1.49.86-2.52,2.3-2.52.61,0,1.13.25,1.41.62v-2.52h1.22v6.85h-1.22v-.56c-.24.39-.78.64-1.39.64-1.46,0-2.32-1.03-2.32-2.52h0ZM305.47,20.94c0-.88-.51-1.46-1.3-1.46s-1.29.58-1.29,1.46.51,1.46,1.29,1.46,1.3-.58,1.3-1.46h0Z"/>
      <path class="cls-2" d="M311.71,20.41v2.97h-1.18v-.71c-.27.47-.86.78-1.46.78-.96,0-1.63-.62-1.63-1.45,0-.96.73-1.47,2.18-1.63l.91-.09v-.05c0-.55-.38-.89-.97-.89-.53,0-.91.33-.97.85l-1.08-.19c.16-.97,1.02-1.59,2.05-1.59,1.28,0,2.15.69,2.15,1.98h0ZM310.53,21.27v-.11l-.93.11c-.65.08-.98.35-.98.7s.27.59.72.59c.75,0,1.19-.57,1.19-1.29h0Z"/>
      <path class="cls-2" d="M312.5,20.94c0-1.49.86-2.52,2.3-2.52.61,0,1.13.25,1.41.62v-2.52h1.22v6.85h-1.22v-.56c-.24.39-.78.64-1.39.64-1.46,0-2.32-1.03-2.32-2.52h0ZM316.29,20.94c0-.88-.51-1.46-1.3-1.46s-1.29.58-1.29,1.46.51,1.46,1.29,1.46,1.3-.58,1.3-1.46h0Z"/>
      <path class="cls-2" d="M286.92,31.01c0-1.49.86-2.52,2.3-2.52.61,0,1.13.25,1.41.62v-2.52h1.22v6.85h-1.22v-.56c-.24.39-.78.64-1.39.64-1.46,0-2.32-1.03-2.32-2.52h0ZM290.71,31.01c0-.88-.51-1.46-1.3-1.46s-1.29.58-1.29,1.46.51,1.46,1.29,1.46,1.3-.58,1.3-1.46h0Z"/>
      <path class="cls-2" d="M297.47,31.33h-3.62c.11.74.58,1.17,1.28,1.17.57,0,.98-.27,1.1-.75l1.14.31c-.27.92-1.12,1.46-2.26,1.46-1.62,0-2.48-1.25-2.48-2.52s.79-2.52,2.41-2.52,2.45,1.22,2.45,2.35c0,.17,0,.39-.02.48h0ZM296.19,30.44c-.06-.58-.44-1.02-1.14-1.02-.6,0-1.03.36-1.16,1.02h2.3Z"/>
      <polygon class="cls-2" points="300.61 26.67 302.09 26.67 304.16 31.58 306.23 26.67 307.71 26.67 307.71 33.45 306.47 33.45 306.47 29.12 304.65 33.45 303.67 33.45 301.85 29.12 301.85 33.45 300.61 33.45 300.61 26.67 300.61 26.67"/>
      <path class="cls-2" d="M312.91,30.48v2.97h-1.18v-.71c-.27.47-.86.78-1.46.78-.96,0-1.63-.62-1.63-1.45,0-.96.73-1.47,2.18-1.63l.91-.09v-.05c0-.55-.38-.89-.97-.89-.53,0-.91.33-.97.85l-1.08-.19c.15-.97,1.02-1.59,2.05-1.59,1.28,0,2.15.69,2.15,1.98h0ZM311.72,31.34v-.11l-.93.11c-.65.08-.98.35-.98.7s.27.59.72.59c.75,0,1.19-.57,1.19-1.29h0ZM311.09,28.03h-.86l.61-1.43h1.41l-1.16,1.43h0Z"/>
      <polygon class="cls-2" points="313.96 26.6 315.18 26.6 315.18 33.45 313.96 33.45 313.96 26.6 313.96 26.6"/>
      <path class="cls-2" d="M320.27,30.48v2.97h-1.18v-.71c-.27.47-.86.78-1.46.78-.96,0-1.63-.62-1.63-1.45,0-.96.73-1.47,2.18-1.63l.91-.09v-.05c0-.55-.38-.89-.97-.89-.53,0-.91.33-.97.85l-1.08-.19c.16-.97,1.02-1.59,2.05-1.59,1.28,0,2.15.69,2.15,1.98h0ZM319.09,31.34v-.11l-.93.11c-.65.08-.98.35-.98.7s.27.59.72.59c.75,0,1.19-.57,1.19-1.29h0Z"/>
      <path class="cls-2" d="M325.87,28.57v4.57c0,1.29-.97,2.15-2.42,2.15-1.14,0-2.06-.61-2.23-1.52l1.13-.18c.06.45.52.73,1.09.73.74,0,1.22-.42,1.22-1.04v-.53c-.24.35-.77.57-1.35.57-1.43,0-2.27-.97-2.27-2.4s.84-2.41,2.24-2.41c.6,0,1.1.23,1.37.57v-.49h1.21ZM324.74,30.9c0-.82-.49-1.35-1.25-1.35s-1.24.53-1.24,1.35.49,1.35,1.24,1.35,1.25-.53,1.25-1.35h0Z"/>
      <path class="cls-2" d="M330.97,30.48v2.97h-1.18v-.71c-.27.47-.86.78-1.46.78-.96,0-1.63-.62-1.63-1.45,0-.96.73-1.47,2.18-1.63l.91-.09v-.05c0-.55-.38-.89-.97-.89-.53,0-.91.33-.97.85l-1.08-.19c.15-.97,1.02-1.59,2.05-1.59,1.28,0,2.15.69,2.15,1.98h0ZM329.79,31.34v-.11l-.93.11c-.65.08-.98.35-.98.7s.27.59.72.59c.75,0,1.19-.57,1.19-1.29h0Z"/>
    </g>
  </g>
</svg>